<?xml version="1.0" encoding="utf-8"?>
<!-- Generator: Adobe Illustrator 20.0.0, SVG Export Plug-In . SVG Version: 6.00 Build 0)  -->
<svg version="1.1" id="Layer_1" xmlns="http://www.w3.org/2000/svg" xmlns:xlink="http://www.w3.org/1999/xlink" x="0px" y="0px"
	 viewBox="0 0 568.6 560" style="enable-background:new 0 0 568.6 560;" xml:space="preserve">
<style type="text/css">
	.st0{clip-path:url(#SVGID_2_);}
	.st1{fill:url(#SVGID_3_);}
	.st2{fill:url(#SVGID_4_);}
	.st3{fill:url(#SVGID_5_);}
	.st4{fill:url(#SVGID_6_);}
	.st5{fill:url(#SVGID_7_);}
	.st6{fill:url(#SVGID_8_);}
	.st7{fill:url(#SVGID_9_);}
	.st8{fill:url(#SVGID_10_);}
	.st9{fill:url(#SVGID_11_);}
	.st10{fill:url(#SVGID_12_);}
	.st11{fill:url(#SVGID_13_);}
	.st12{clip-path:url(#SVGID_2_);fill:#FFFFFF;}
</style>
<g>
	<defs>
		<circle id="SVGID_1_" cx="284.3" cy="280" r="229.4"/>
	</defs>
	<clipPath id="SVGID_2_">
		<use xlink:href="#SVGID_1_"  style="overflow:visible;"/>
	</clipPath>
	<g class="st0">
		<linearGradient id="SVGID_3_" gradientUnits="userSpaceOnUse" x1="300.3761" y1="547.4024" x2="268.1689" y2="4.8348">
			<stop  offset="0" style="stop-color:#8C3C92;stop-opacity:0.8"/>
			<stop  offset="0.404" style="stop-color:#6F2D77;stop-opacity:0.8812"/>
			<stop  offset="0.9946" style="stop-color:#3E1449"/>
		</linearGradient>
		<path class="st1" d="M183.9,322.3c0.3,0,0.6,0,0.9,0.1h0.5v-0.1H183.9z M183.9,322.3c0.3,0,0.6,0,0.9,0.1h0.5v-0.1H183.9z
			 M183.9,322.3c0.3,0,0.6,0,0.9,0.1h0.5v-0.1H183.9z M183.9,322.3c0.3,0,0.6,0,0.9,0.1h0.5v-0.1H183.9z M502.9,209.6
			c-0.1-0.5-0.3-1-0.4-1.4c0-0.1-0.1-0.1-0.1-0.2C472.5,116.8,386.8,50.7,285.6,50.2h-1.1c-0.1,0-0.1,0-0.2,0
			C182.7,50.3,96.6,116.4,66.6,208v0.1c-0.1,0.3-0.2,0.5-0.3,0.9c-7.2,22.2-11.1,45.9-11.1,70.6c0,7.1,0.3,14.2,0.9,21
			c0,0.3,0,0.7,0.1,1c0.7,7.2,1.7,14.3,3.1,21.3c0.5,2.4,1,4.7,1.5,7c0.5,2.4,1.1,4.7,1.7,6.8c0.9,3.7,2,7.3,3.1,10.9v0.1
			c1.1,3.6,2.3,6.8,3.5,10.2c0,0.3,0.1,0.5,0.2,0.7c2.6,6.7,5.4,13.5,8.5,20.1c0.6,1.4,1.4,3,2.3,4.6c0.7,1.2,1.3,2.6,2.1,3.9
			c0.2,0.7,0.6,1.3,1,1.9c1.3,2.6,2.7,5.1,4.3,7.6c0,0,0.1,0.2,0.3,0.4c2,3.5,4.2,6.8,6.4,10.1c2.1,3.3,4.3,6.3,6.7,9.5
			c1.5,2.1,3,4.1,4.6,5.9c0.2,0.3,0.4,0.6,0.7,0.8c1.5,2,3,3.8,4.6,5.5c3.5,4.2,7,7.9,10.8,11.7c2.3,2.5,4.7,4.8,7.1,7
			c1.4,1.2,2.8,2.7,4.3,3.7c2.4,2.2,4.8,4.2,7.1,6.2c2.5,2.1,4.9,3.9,7.4,5.7c0.7,0.5,1.5,1,2.2,1.5c0.1,0.2,0.3,0.3,0.4,0.5h0.1
			c0.2,0.1,0.3,0.2,0.5,0.2c1.9,1.6,3.9,2.9,5.8,4.3c2.9,1.9,5.9,3.8,8.9,5.6c0.2,0.2,0.4,0.5,0.7,0.5c2.7,1.6,5.3,3.1,7.9,4.6
			c0.6,0.4,1.3,0.7,1.9,1c3.1,1.8,6.1,3.3,9.3,4.8c3.4,1.6,6.7,3.2,10.1,4.6c3.4,1.5,6.7,2.8,10.2,4.2c0.2,0.1,0.4,0.2,0.6,0.2
			c3.4,1.1,6.8,2.4,10.3,3.4c5.5,1.7,11.1,3.4,16.8,4.6v-43c0.1-18.8,0.2-37-11.3-46.3l-5.7,4.2l5.7-4.4l27.9-20l35.1-25.6
			l66.7,48.5l-3.3,5.6c-12.2,21.5-18.1,45.9-16.1,70.6c0.4,5.5,1.3,9.6,2.5,10.5c0.1,0,0.1,0,0.1,0c30.8-6.8,59.3-19.8,84-37.9
			c0.4-0.2,0.9-0.6,1.3-1c56.8-41.7,93.6-109.1,93.6-184.8C513.8,255.1,510,231.5,502.9,209.6z M336.3,169.7c2.2-2.9,6.4-3.3,9-0.7
			l27.7,27.6c2.6,2.5,2.3,6.7-0.5,8.9l-3.1,2.5l-20.8,16.7c-6.2,5.1-15.3,4.4-20.9-1.3l-4-4l-4.3-4.2c-5.5-5.5-6.1-14.2-1.6-20.3
			l10.2-13.9L336.3,169.7z M193.9,198.5c-2.9-2.2-3.1-6.2-0.5-8.7l27.6-27.7c2.6-2.6,6.9-2.3,9,0.8l12.1,16.3l0.1,0.2l7.3,10.2
			c3.9,5.5,3.4,12.7-1.3,17.3l-11.1,11.1c-4.9,4.9-12.6,5.4-17.8,1L205.7,208L193.9,198.5z M229,357.5c0,6.3-4.7,11.4-10.8,12.1
			l-6.3,0.7l-17.7,2l-9.5,1.2c-1.6,0.2-3.1-0.4-4.2-1.3c-0.3-0.1-0.5-0.3-0.7-0.5c-1.1-1-1.7-2.4-1.7-4.2v-39.3
			c0-3.2,2.7-5.8,5.8-5.8h-6.7l-19.7-0.3c-3.9,0-6.7-3.2-6.3-7l0.7-6.1l3.9-31.8c0.1-1,0.4-1.8,0.9-2.6c1.4-2.3,4.4-3.6,7.1-2.8
			l2.8,0.7l1.9,0.5h0.2l6.7,2l20.3,5.6c6,1.7,10,7.6,9.3,14l-2.1,16.4v0.1c-0.7,6.5-6.2,11.5-12.8,11.4h-6.1c0.3,0,0.6,0,0.9,0.1
			h0.6l9.9,1.6l23.4,3.6c5.9,1.1,10.3,6.1,10.3,12.1V357.5z M385.1,356.2l-16-49.3l29.7-21.6l-0.2-0.1l-7.7-2.4
			c-1.4-0.6-2.7-1.1-4-1.7c-1.3-0.7-2.5-1.3-3.7-2c-3.3-1.9-6.1-3.9-8.6-5.9c-1.3-1-2.4-2.1-3.5-3.2c-0.8-0.8-1.6-1.7-2.3-2.5
			c-0.3-0.4-0.6-0.7-0.9-1c-0.8-1.1-1.6-2.2-2.3-3.3c-2.3-3.4-3.9-6.8-5.1-10.2c-0.1-0.4-0.3-0.7-0.4-1.1c-0.1-0.4-0.2-0.7-0.3-1.1
			c-0.4-1.5-0.8-3-1.1-4.4c-0.2-1.4-0.4-2.8-0.5-4c-0.1-0.6-0.2-1-0.2-1.5v-1.8c0-0.3,0-0.5,0.1-0.7v-0.1c0.1-0.4,0.2-0.7,0.3-1
			c0.1-0.3,0.1-0.5,0.3-0.7c0-0.1,0-0.2,0.1-0.3l0.1-0.1c1.3-1.9,3.4-3.2,5.7-3.2c0.2-0.1,0.2,0,0.4,0c0,0,0.1,0,0.2,0h0.1
			c0.1,0,0.2,0,0.4,0.1c0.1,0,0.1,0,0.2,0c0.2,0.1,0.3,0.1,0.5,0.1h0.1l0.4,0.1l1.2,0.4l9.3,2.6l62.2,16.9l0.8,1.4l1.5,2.6
			L385.1,356.2z M183.9,322.3c0.3,0,0.6,0,0.9,0.1h0.5v-0.1H183.9z M183.9,322.3c0.3,0,0.6,0,0.9,0.1h0.5v-0.1H183.9z M183.9,322.3
			c0.3,0,0.6,0,0.9,0.1h0.5v-0.1H183.9z"/>
		<radialGradient id="SVGID_4_" cx="289.5853" cy="96.63" r="401.2904" fx="289.3346" fy="96.5904" gradientUnits="userSpaceOnUse">
			<stop  offset="0" style="stop-color:#F5DDEB"/>
			<stop  offset="0.2003" style="stop-color:#D9C0D6"/>
			<stop  offset="0.6318" style="stop-color:#93769F"/>
			<stop  offset="0.9946" style="stop-color:#54346E"/>
		</radialGradient>
		<path class="st2" d="M503.8,208.9l-0.9,0.7l-61,44.5l-2-0.6l-0.1-0.1l-62-16.9l-9.5-2.6l-1.1-0.3l-0.4-0.1h-0.1l-0.3-0.2H366
			c0,0,0,0-0.1,0c-0.1,0-0.1,0-0.2,0c-0.1,0-0.1,0-0.2,0h-0.1c-0.1,0-0.2,0-0.2,0l-0.1-0.1h-0.8c-0.5,0-0.9,0-1.3,0.2
			c-0.1,0-0.3,0-0.4,0.1c-0.3,0-0.7,0.2-0.9,0.4c-0.1,0.1-0.2,0.1-0.3,0.2c-0.2,0-0.3,0-0.4,0.2c-0.4,0.2-0.7,0.5-1,0.8
			c-0.3,0.2-0.5,0.6-0.7,0.8c-0.2,0.2-0.3,0.4-0.3,0.6l-0.1,0.1c-0.1,0.1-0.1,0.2-0.1,0.3c-0.2,0.2-0.2,0.4-0.3,0.7
			c-0.1,0.2-0.3,0.6-0.3,1v0.1c-0.1,0.2-0.1,0.4-0.1,0.7c-0.1,0.3-0.1,0.5-0.1,0.7c0,0.4,0.1,0.6,0.1,0.9v0.2c0,0.5,0.1,1.1,0.1,1.4
			c0.1,1.3,0.3,2.7,0.6,4.1c0.3,1.4,0.6,2.8,1,4.3c0.1,0.5,0.2,0.9,0.4,1.2c0.1,0.4,0.3,0.7,0.4,1.1c1.2,3.4,2.8,6.8,5.1,10.2
			c0.6,1.1,1.4,2.2,2.3,3.3c0.3,0.3,0.6,0.6,0.9,1c0.7,0.9,1.5,1.8,2.3,2.5c1.1,1.1,2.2,2.2,3.5,3.2c2.5,2.2,5.3,4.2,8.6,6
			c1.2,0.6,2.4,1.2,3.7,1.9c1.3,0.6,2.6,1.1,4,1.7l7.7,2.4l-29.5,21.7H369l16.1,49.3v0.1l0.3,0.8l34.8,107.3l0.2,0.6
			c-0.3,0.3-0.6,0.5-0.9,0.7l-0.6-0.3l-67.3-48.9l-66.7-48.5l-35.1,25.6l-27.9,20l-5.7,4.4l-65.6,47.6l-0.1,0.1
			c-0.1-0.1-0.2-0.1-0.4-0.3h-0.1c-0.1,0-0.3-0.2-0.5-0.3l0.1-0.2l30.2-93.3c0.2,0.2,0.4,0.4,0.7,0.5c1.1,0.9,2.6,1.5,4.2,1.3
			l9.5-1.2l17.7-2l6.3-0.7c6.1-0.7,10.8-5.7,10.8-12.1v-17.8c0-5.9-4.4-11-10.3-12.1l-23.4-3.6l-9.9-1.6h-0.1v-0.1h4.8
			c6.5,0.1,12.1-4.9,12.8-11.4v-0.1l2.1-16.4c0.7-6.3-3.3-12.3-9.3-14l-20.3-5.6l-6.7-2h-0.2l-1.9-0.5l-2.8-0.7
			c-2.8-0.8-5.7,0.5-7.1,2.8L66.3,209l-0.2-0.1c0.1-0.3,0.2-0.5,0.3-0.9h139.3l13.7,10.9c5.3,4.4,13,3.9,17.8-1l11.1-11.1
			c4.7-4.7,5.2-11.9,1.3-17.3l-7.3-10.2l18.8-58l23.2-71.2l0.2-0.6h0.9l0.2,0.6l23.2,71.2l19.4,59.8L318,195
			c-4.6,6.1-3.9,14.9,1.6,20.3l4.3,4.2l4,4c5.6,5.6,14.7,6.3,20.9,1.3l20.8-16.7h133.9C503.6,208.4,503.6,208.6,503.8,208.9z"/>
		<radialGradient id="SVGID_5_" cx="284.323" cy="50.2238" r="0" gradientUnits="userSpaceOnUse">
			<stop  offset="0" style="stop-color:#F5DDEB"/>
			<stop  offset="0.2003" style="stop-color:#D9C0D6"/>
			<stop  offset="0.6318" style="stop-color:#93769F"/>
			<stop  offset="0.9946" style="stop-color:#54346E"/>
		</radialGradient>
		<path class="st3" d="M284.3,50.2"/>
		<radialGradient id="SVGID_6_" cx="66.4749" cy="208.0499" r="0.1246" fx="66.4748" fy="208.0499" gradientUnits="userSpaceOnUse">
			<stop  offset="0" style="stop-color:#F5DDEB"/>
			<stop  offset="0.2003" style="stop-color:#D9C0D6"/>
			<stop  offset="0.6318" style="stop-color:#93769F"/>
			<stop  offset="0.9946" style="stop-color:#54346E"/>
		</radialGradient>
		<polygon class="st4" points="66.6,208 66.6,208.1 66.4,208 		"/>
		<radialGradient id="SVGID_7_" cx="282.6327" cy="257.7379" r="266.8124" gradientUnits="userSpaceOnUse">
			<stop  offset="0" style="stop-color:#F5DDEB"/>
			<stop  offset="0.2003" style="stop-color:#D9C0D6"/>
			<stop  offset="0.6318" style="stop-color:#93769F"/>
			<stop  offset="0.9946" style="stop-color:#54346E"/>
		</radialGradient>
		<polygon class="st5" points="284.3,257.7 168.5,272.8 168.3,272.8 156.6,274.4 66.6,208.1 		"/>
		<radialGradient id="SVGID_8_" cx="262.1157" cy="272.6077" r="272.2711" gradientUnits="userSpaceOnUse">
			<stop  offset="0" style="stop-color:#F5DDEB"/>
			<stop  offset="0.2003" style="stop-color:#D9C0D6"/>
			<stop  offset="0.6318" style="stop-color:#93769F"/>
			<stop  offset="0.9946" style="stop-color:#54346E"/>
		</radialGradient>
		<path class="st6" d="M284.3,50.2v207.5l-45.5-41.3l9.5-9.5c4.7-4.7,5.2-11.9,1.3-17.3l-7.3-10.2l-0.1-0.2l18.9-57.8L284.3,50.2z"
			/>
		<radialGradient id="SVGID_9_" cx="181.9438" cy="472.4528" r="312.5605" gradientUnits="userSpaceOnUse">
			<stop  offset="0" style="stop-color:#F5DDEB"/>
			<stop  offset="0.2003" style="stop-color:#D9C0D6"/>
			<stop  offset="0.6318" style="stop-color:#93769F"/>
			<stop  offset="0.9946" style="stop-color:#54346E"/>
		</radialGradient>
		<path class="st7" d="M194.1,372.2l17.7-2l-61.3,95.3l29.9-93.5c1.1,0.9,2.6,1.5,4.2,1.3L194.1,372.2z"/>
		<radialGradient id="SVGID_10_" cx="236.0247" cy="349.7843" r="495.7063" gradientUnits="userSpaceOnUse">
			<stop  offset="0" style="stop-color:#F5DDEB"/>
			<stop  offset="0.2003" style="stop-color:#D9C0D6"/>
			<stop  offset="0.6318" style="stop-color:#93769F"/>
			<stop  offset="0.9946" style="stop-color:#54346E"/>
		</radialGradient>
		<path class="st8" d="M229,343.6v-4c0-5.9-4.4-11-10.3-12.1l-23.4-3.6l-9.9-1.6h-0.1v-0.1h4.8c6.5,0.1,12.1-4.9,12.8-11.4v-0.1
			l81.5-53.1L229,343.6z"/>
		<radialGradient id="SVGID_11_" cx="396.5736" cy="261.2589" r="1088.8312" gradientUnits="userSpaceOnUse">
			<stop  offset="0" style="stop-color:#F5DDEB"/>
			<stop  offset="0.2003" style="stop-color:#D9C0D6"/>
			<stop  offset="0.6318" style="stop-color:#93769F"/>
			<stop  offset="0.9946" style="stop-color:#54346E"/>
		</radialGradient>
		<path class="st9" d="M503.4,208l-0.9,0.2l-124.8,28.2l-0.1,0.1l-9.3-2.6l-1.2-0.4l-0.4-0.1h-0.1c-0.2,0-0.3,0-0.5-0.1
			c-0.1,0-0.1,0-0.2,0c-0.2-0.1-0.3-0.1-0.4-0.1h-0.1c-0.1,0-0.2,0-0.2,0c-0.2,0-0.2-0.1-0.4,0c-2.4,0-4.5,1.3-5.7,3.2l-0.1,0.1
			c-0.1,0.1-0.1,0.2-0.1,0.3c-0.2,0.2-0.2,0.4-0.3,0.7c-0.1,0.3-0.2,0.6-0.3,1v0.1c-0.1,0.2-0.1,0.4-0.1,0.7v1.6l-73.9,16.7
			l39.5-38.3l4,4c5.6,5.6,14.7,6.3,20.9,1.3l20.8-16.7H503.4z"/>
		<radialGradient id="SVGID_12_" cx="353.2557" cy="480.3331" r="685.4774" gradientUnits="userSpaceOnUse">
			<stop  offset="0" style="stop-color:#F5DDEB"/>
			<stop  offset="0.2003" style="stop-color:#D9C0D6"/>
			<stop  offset="0.6318" style="stop-color:#93769F"/>
			<stop  offset="0.9946" style="stop-color:#54346E"/>
		</radialGradient>
		<polygon class="st10" points="284.3,257.7 369.1,306.9 418.9,465.4 		"/>
		<radialGradient id="SVGID_13_" cx="312.156" cy="249.8926" r="173.2902" gradientUnits="userSpaceOnUse">
			<stop  offset="0" style="stop-color:#F5DDEB"/>
			<stop  offset="0.2003" style="stop-color:#D9C0D6"/>
			<stop  offset="0.6318" style="stop-color:#93769F"/>
			<stop  offset="0.9946" style="stop-color:#54346E"/>
		</radialGradient>
		<polygon class="st11" points="284.3,257.7 284.9,368.1 150.5,465.6 		"/>
	</g>
	<polygon class="st12" points="369.2,91 371.1,96.8 377.3,96.8 372.3,100.5 374.2,106.3 369.2,102.7 364.2,106.3 366.1,100.5 
		361.1,96.8 367.3,96.8 	"/>
	<polygon class="st12" points="109,348.5 110.9,354.4 117.1,354.4 112.1,358 114,363.9 109,360.2 104,363.9 105.9,358 100.9,354.4 
		107.1,354.4 	"/>
	<polygon class="st12" points="477.4,303.5 479.3,309.4 485.5,309.4 480.5,313 482.4,318.9 477.4,315.3 472.4,318.9 474.3,313 
		469.3,309.4 475.5,309.4 	"/>
	<polygon class="st12" points="181.2,98.6 183.1,104.5 189.3,104.5 184.3,108.1 186.2,114 181.2,110.4 176.2,114 178.1,108.1 
		173.1,104.5 179.3,104.5 	"/>
	<path class="st12" d="M430.6,355.6c-0.3,0.6-0.8,1.1-1.3,1.6c-3.2,3.2-8.5,3.2-11.8,0c-3.2-3.2-3.2-8.5,0-11.8
		c0.8-0.8,1.8-1.4,2.8-1.9c-2.6,3.1-2.4,7.8,0.6,10.8C423.5,357,427.5,357.4,430.6,355.6z"/>
	<path class="st12" d="M426.6,175.4c-0.3,0.6-0.8,1.1-1.3,1.6c-3.2,3.2-8.5,3.2-11.8,0c-3.2-3.2-3.2-8.5,0-11.8
		c0.8-0.8,1.8-1.4,2.8-1.9c-2.6,3.1-2.4,7.8,0.6,10.8C419.5,176.8,423.5,177.2,426.6,175.4z"/>
	
		<rect x="99.5" y="134.9" transform="matrix(0.7071 -0.7071 0.7071 0.7071 -78.0966 115.8358)" class="st12" width="2.5" height="34.5"/>
	
		<rect x="59.2" y="258.7" transform="matrix(0.7071 -0.7071 0.7071 0.7071 -187.2127 127.5853)" class="st12" width="2.5" height="62.2"/>
	
		<rect x="419.8" y="101.5" transform="matrix(0.7071 -0.7071 0.7071 0.7071 53.4375 334.5155)" class="st12" width="21.4" height="2.5"/>
</g>
</svg>
