<?xml version="1.0" encoding="utf-8"?>
<!-- Generator: Adobe Illustrator 20.0.0, SVG Export Plug-In . SVG Version: 6.00 Build 0)  -->
<svg version="1.1" id="Layer_1" xmlns="http://www.w3.org/2000/svg" xmlns:xlink="http://www.w3.org/1999/xlink" x="0px" y="0px"
	 viewBox="0 0 960 560" style="enable-background:new 0 0 960 560;" xml:space="preserve">
<style type="text/css">
	.st0{fill:#3E1449;}
	.st1{font-family:'Poppins-SemiBold';}
	.st2{font-size:108.4063px;}
	.st3{clip-path:url(#SVGID_2_);}
	.st4{fill:url(#SVGID_3_);}
	.st5{fill:url(#SVGID_4_);}
	.st6{fill:url(#SVGID_5_);}
	.st7{fill:url(#SVGID_6_);}
	.st8{fill:url(#SVGID_7_);}
	.st9{fill:url(#SVGID_8_);}
	.st10{fill:url(#SVGID_9_);}
	.st11{fill:url(#SVGID_10_);}
	.st12{fill:url(#SVGID_11_);}
	.st13{fill:url(#SVGID_12_);}
	.st14{fill:url(#SVGID_13_);}
	.st15{clip-path:url(#SVGID_2_);fill:#FFFFFF;}
</style>
<g>
	<g>
		<text transform="matrix(1 0 0 1 295.58 300.278)" class="st0 st1 st2">talentkids</text>
	</g>
	<g>
		<defs>
			<circle id="SVGID_1_" cx="187.3" cy="270.7" r="75.2"/>
		</defs>
		<clipPath id="SVGID_2_">
			<use xlink:href="#SVGID_1_"  style="overflow:visible;"/>
		</clipPath>
		<g class="st3">
			<linearGradient id="SVGID_3_" gradientUnits="userSpaceOnUse" x1="192.607" y1="358.3725" x2="182.044" y2="180.4269">
				<stop  offset="0" style="stop-color:#8C3C92;stop-opacity:0.8"/>
				<stop  offset="0.404" style="stop-color:#6F2D77;stop-opacity:0.8812"/>
				<stop  offset="0.9946" style="stop-color:#3E1449"/>
			</linearGradient>
			<path class="st4" d="M154.4,284.5c0.1,0,0.2,0,0.3,0h0.2v0H154.4z M154.4,284.5c0.1,0,0.2,0,0.3,0h0.2v0H154.4z M154.4,284.5
				c0.1,0,0.2,0,0.3,0h0.2v0H154.4z M154.4,284.5c0.1,0,0.2,0,0.3,0h0.2v0H154.4z M259,247.6c0-0.2-0.1-0.3-0.1-0.5c0,0,0,0,0-0.1
				c-9.8-29.9-37.9-51.6-71.1-51.8h-0.4c0,0,0,0-0.1,0c-33.3,0-61.6,21.7-71.4,51.8v0c0,0.1-0.1,0.2-0.1,0.3
				c-2.4,7.3-3.6,15-3.6,23.1c0,2.3,0.1,4.6,0.3,6.9c0,0.1,0,0.2,0,0.3c0.2,2.4,0.6,4.7,1,7c0.2,0.8,0.3,1.5,0.5,2.3
				c0.2,0.8,0.4,1.5,0.6,2.2c0.3,1.2,0.7,2.4,1,3.6v0c0.4,1.2,0.7,2.2,1.1,3.3c0,0.1,0,0.2,0.1,0.2c0.8,2.2,1.8,4.4,2.8,6.6
				c0.2,0.5,0.5,1,0.7,1.5c0.2,0.4,0.4,0.8,0.7,1.3c0.1,0.2,0.2,0.4,0.3,0.6c0.4,0.8,0.9,1.7,1.4,2.5c0,0,0,0.1,0.1,0.1
				c0.7,1.1,1.4,2.2,2.1,3.3c0.7,1.1,1.4,2.1,2.2,3.1c0.5,0.7,1,1.3,1.5,2c0.1,0.1,0.1,0.2,0.2,0.3c0.5,0.6,1,1.2,1.5,1.8
				c1.1,1.4,2.3,2.6,3.5,3.8c0.7,0.8,1.5,1.6,2.3,2.3c0.5,0.4,0.9,0.9,1.4,1.2c0.8,0.7,1.6,1.4,2.3,2c0.8,0.7,1.6,1.3,2.4,1.9
				c0.2,0.2,0.5,0.3,0.7,0.5c0,0.1,0.1,0.1,0.1,0.2h0c0.1,0,0.1,0.1,0.2,0.1c0.6,0.5,1.3,0.9,1.9,1.4c0.9,0.6,2,1.2,2.9,1.9
				c0.1,0.1,0.1,0.2,0.2,0.2c0.9,0.5,1.7,1,2.6,1.5c0.2,0.1,0.4,0.2,0.6,0.3c1,0.6,2,1.1,3.1,1.6c1.1,0.5,2.2,1,3.3,1.5
				c1.1,0.5,2.2,0.9,3.3,1.4c0.1,0,0.1,0.1,0.2,0.1c1.1,0.4,2.2,0.8,3.4,1.1c1.8,0.6,3.6,1.1,5.5,1.5v-14.1c0-6.2,0.1-12.1-3.7-15.2
				l-1.9,1.4l1.9-1.4l9.2-6.6l11.5-8.4l21.9,15.9l-1.1,1.9c-4,7.1-5.9,15-5.3,23.1c0.1,1.8,0.4,3.2,0.8,3.4c0,0,0,0,0,0
				c10.1-2.2,19.4-6.5,27.6-12.4c0.1-0.1,0.3-0.2,0.4-0.3c18.6-13.7,30.7-35.8,30.7-60.6C262.6,262.5,261.4,254.8,259,247.6z
				 M204.4,234.5c0.7-0.9,2.1-1.1,3-0.2l9.1,9.1c0.8,0.8,0.7,2.2-0.2,2.9l-1,0.8l-6.8,5.5c-2,1.7-5,1.4-6.9-0.4l-1.3-1.3l-1.4-1.4
				c-1.8-1.8-2-4.6-0.5-6.7l3.3-4.5L204.4,234.5z M157.7,244c-0.9-0.7-1-2-0.2-2.9l9.1-9.1c0.8-0.8,2.3-0.7,3,0.3l4,5.3l0,0.1
				l2.4,3.3c1.3,1.8,1.1,4.2-0.4,5.7l-3.6,3.6c-1.6,1.6-4.1,1.8-5.9,0.3l-4.5-3.6L157.7,244z M169.2,296.1c0,2.1-1.5,3.7-3.5,4
				l-2.1,0.2l-5.8,0.6l-3.1,0.4c-0.5,0.1-1-0.1-1.4-0.4c-0.1,0-0.2-0.1-0.2-0.2c-0.4-0.3-0.6-0.8-0.6-1.4v-12.9c0-1,0.9-1.9,1.9-1.9
				h-2.2l-6.5-0.1c-1.3,0-2.2-1-2.1-2.3l0.2-2l1.3-10.4c0-0.3,0.1-0.6,0.3-0.8c0.5-0.7,1.4-1.2,2.3-0.9l0.9,0.2l0.6,0.2h0.1l2.2,0.7
				l6.7,1.9c2,0.6,3.3,2.5,3.1,4.6l-0.7,5.4v0c-0.2,2.1-2,3.8-4.2,3.7h-2c0.1,0,0.2,0,0.3,0h0.2l3.3,0.5l7.7,1.2c2,0.4,3.4,2,3.4,4
				V296.1z M220.4,295.7l-5.2-16.2l9.8-7.1l-0.1,0l-2.5-0.8c-0.5-0.2-0.9-0.4-1.3-0.6c-0.4-0.2-0.8-0.4-1.2-0.6
				c-1.1-0.6-2-1.3-2.8-2c-0.4-0.3-0.8-0.7-1.1-1c-0.3-0.3-0.5-0.6-0.7-0.8c-0.1-0.1-0.2-0.2-0.3-0.3c-0.3-0.4-0.5-0.7-0.7-1.1
				c-0.7-1.1-1.3-2.2-1.7-3.3c0-0.1-0.1-0.2-0.1-0.4s-0.1-0.2-0.1-0.4c-0.1-0.5-0.3-1-0.4-1.4c-0.1-0.5-0.1-0.9-0.2-1.3
				c0-0.2-0.1-0.3-0.1-0.5v-0.6c0-0.1,0-0.2,0-0.2v0c0-0.1,0.1-0.2,0.1-0.3c0-0.1,0-0.2,0.1-0.2c0,0,0-0.1,0-0.1l0,0
				c0.4-0.6,1.1-1,1.9-1c0.1,0,0.1,0,0.1,0c0,0,0,0,0.1,0h0c0,0,0.1,0,0.1,0c0,0,0,0,0.1,0c0.1,0,0.1,0,0.2,0h0l0.1,0l0.4,0.1
				l3.1,0.8l20.4,5.6l0.3,0.5l0.5,0.8L220.4,295.7z M154.4,284.5c0.1,0,0.2,0,0.3,0h0.2v0H154.4z M154.4,284.5c0.1,0,0.2,0,0.3,0
				h0.2v0H154.4z M154.4,284.5c0.1,0,0.2,0,0.3,0h0.2v0H154.4z"/>
			
				<radialGradient id="SVGID_4_" cx="189.0679" cy="210.5329" r="131.611" fx="188.9857" fy="210.52" gradientUnits="userSpaceOnUse">
				<stop  offset="0" style="stop-color:#F5DDEB"/>
				<stop  offset="0.2003" style="stop-color:#D9C0D6"/>
				<stop  offset="0.6318" style="stop-color:#93769F"/>
				<stop  offset="0.9946" style="stop-color:#54346E"/>
			</radialGradient>
			<path class="st5" d="M259.3,247.4l-0.3,0.2l-20,14.6l-0.7-0.2l0,0l-20.3-5.6l-3.1-0.8l-0.4-0.1l-0.1,0h0l-0.1-0.1h-0.1
				c0,0,0,0,0,0c0,0,0,0-0.1,0s0,0-0.1,0h0c0,0-0.1,0-0.1,0l0,0h-0.3c-0.2,0-0.3,0-0.4,0.1c0,0-0.1,0-0.1,0c-0.1,0-0.2,0.1-0.3,0.1
				c0,0-0.1,0-0.1,0.1c-0.1,0-0.1,0-0.1,0.1c-0.1,0.1-0.2,0.2-0.3,0.3c-0.1,0.1-0.2,0.2-0.2,0.3c-0.1,0.1-0.1,0.1-0.1,0.2l0,0
				c0,0,0,0.1,0,0.1c-0.1,0.1-0.1,0.1-0.1,0.2c0,0.1-0.1,0.2-0.1,0.3v0c0,0.1,0,0.1,0,0.2c0,0.1,0,0.2,0,0.2c0,0.1,0,0.2,0,0.3v0.1
				c0,0.2,0,0.4,0,0.5c0,0.4,0.1,0.9,0.2,1.3c0.1,0.5,0.2,0.9,0.3,1.4c0,0.2,0.1,0.3,0.1,0.4c0,0.1,0.1,0.2,0.1,0.4
				c0.4,1.1,0.9,2.2,1.7,3.3c0.2,0.4,0.5,0.7,0.7,1.1c0.1,0.1,0.2,0.2,0.3,0.3c0.2,0.3,0.5,0.6,0.7,0.8c0.4,0.4,0.7,0.7,1.1,1
				c0.8,0.7,1.7,1.4,2.8,2c0.4,0.2,0.8,0.4,1.2,0.6c0.4,0.2,0.8,0.4,1.3,0.6l2.5,0.8l-9.7,7.1h0l5.3,16.2v0l0.1,0.3l11.4,35.2
				l0.1,0.2c-0.1,0.1-0.2,0.2-0.3,0.2l-0.2-0.1l-22.1-16l-21.9-15.9l-11.5,8.4l-9.2,6.6l-1.9,1.4l-21.5,15.6l0,0c0,0-0.1,0-0.1-0.1
				h0c0,0-0.1-0.1-0.2-0.1l0-0.1l9.9-30.6c0.1,0.1,0.1,0.1,0.2,0.2c0.4,0.3,0.8,0.5,1.4,0.4l3.1-0.4l5.8-0.6l2.1-0.2
				c2-0.2,3.5-1.9,3.5-4v-5.8c0-2-1.4-3.6-3.4-4l-7.7-1.2l-3.3-0.5h0v0h1.6c2.1,0,4-1.6,4.2-3.7v0l0.7-5.4c0.2-2.1-1.1-4-3.1-4.6
				l-6.7-1.9l-2.2-0.7h-0.1l-0.6-0.2l-0.9-0.2c-0.9-0.3-1.9,0.2-2.3,0.9l-29.6-21.5l-0.1,0c0-0.1,0.1-0.2,0.1-0.3h45.7l4.5,3.6
				c1.7,1.4,4.3,1.3,5.9-0.3l3.6-3.6c1.5-1.5,1.7-3.9,0.4-5.7l-2.4-3.3l6.2-19l7.6-23.3l0.1-0.2h0.3l0.1,0.2l7.6,23.3l6.4,19.6
				l-3.3,4.5c-1.5,2-1.3,4.9,0.5,6.7l1.4,1.4l1.3,1.3c1.9,1.9,4.8,2.1,6.9,0.4l6.8-5.5h43.9C259.3,247.2,259.3,247.3,259.3,247.4z"
				/>
			<radialGradient id="SVGID_5_" cx="187.342" cy="195.3131" r="0" gradientUnits="userSpaceOnUse">
				<stop  offset="0" style="stop-color:#F5DDEB"/>
				<stop  offset="0.2003" style="stop-color:#D9C0D6"/>
				<stop  offset="0.6318" style="stop-color:#93769F"/>
				<stop  offset="0.9946" style="stop-color:#54346E"/>
			</radialGradient>
			<path class="st6" d="M187.3,195.3"/>
			
				<radialGradient id="SVGID_6_" cx="115.8945" cy="247.0753" r="4.085709e-02" fx="115.8945" fy="247.0753" gradientUnits="userSpaceOnUse">
				<stop  offset="0" style="stop-color:#F5DDEB"/>
				<stop  offset="0.2003" style="stop-color:#D9C0D6"/>
				<stop  offset="0.6318" style="stop-color:#93769F"/>
				<stop  offset="0.9946" style="stop-color:#54346E"/>
			</radialGradient>
			<polygon class="st7" points="115.9,247.1 115.9,247.1 115.9,247.1 			"/>
			<radialGradient id="SVGID_7_" cx="186.7877" cy="263.3714" r="87.5063" gradientUnits="userSpaceOnUse">
				<stop  offset="0" style="stop-color:#F5DDEB"/>
				<stop  offset="0.2003" style="stop-color:#D9C0D6"/>
				<stop  offset="0.6318" style="stop-color:#93769F"/>
				<stop  offset="0.9946" style="stop-color:#54346E"/>
			</radialGradient>
			<polygon class="st8" points="187.3,263.4 149.4,268.3 149.3,268.3 145.4,268.8 115.9,247.1 			"/>
			<radialGradient id="SVGID_8_" cx="180.0587" cy="268.2482" r="89.2966" gradientUnits="userSpaceOnUse">
				<stop  offset="0" style="stop-color:#F5DDEB"/>
				<stop  offset="0.2003" style="stop-color:#D9C0D6"/>
				<stop  offset="0.6318" style="stop-color:#93769F"/>
				<stop  offset="0.9946" style="stop-color:#54346E"/>
			</radialGradient>
			<path class="st9" d="M187.3,195.3v68.1l-14.9-13.6l3.1-3.1c1.5-1.5,1.7-3.9,0.4-5.7l-2.4-3.3l0-0.1l6.2-18.9L187.3,195.3z"/>
			<radialGradient id="SVGID_9_" cx="153.7648" cy="333.7914" r="102.5103" gradientUnits="userSpaceOnUse">
				<stop  offset="0" style="stop-color:#F5DDEB"/>
				<stop  offset="0.2003" style="stop-color:#D9C0D6"/>
				<stop  offset="0.6318" style="stop-color:#93769F"/>
				<stop  offset="0.9946" style="stop-color:#54346E"/>
			</radialGradient>
			<path class="st10" d="M157.8,300.9l5.8-0.6l-20.1,31.3l9.8-30.6c0.4,0.3,0.8,0.5,1.4,0.4L157.8,300.9z"/>
			<radialGradient id="SVGID_10_" cx="171.5017" cy="293.5598" r="162.5766" gradientUnits="userSpaceOnUse">
				<stop  offset="0" style="stop-color:#F5DDEB"/>
				<stop  offset="0.2003" style="stop-color:#D9C0D6"/>
				<stop  offset="0.6318" style="stop-color:#93769F"/>
				<stop  offset="0.9946" style="stop-color:#54346E"/>
			</radialGradient>
			<path class="st11" d="M169.2,291.5v-1.3c0-2-1.4-3.6-3.4-4l-7.7-1.2l-3.3-0.5h0v0h1.6c2.1,0,4-1.6,4.2-3.7v0l26.7-17.4
				L169.2,291.5z"/>
			<radialGradient id="SVGID_11_" cx="224.1568" cy="264.5262" r="357.1034" gradientUnits="userSpaceOnUse">
				<stop  offset="0" style="stop-color:#F5DDEB"/>
				<stop  offset="0.2003" style="stop-color:#D9C0D6"/>
				<stop  offset="0.6318" style="stop-color:#93769F"/>
				<stop  offset="0.9946" style="stop-color:#54346E"/>
			</radialGradient>
			<path class="st12" d="M259.2,247.1l-0.3,0.1l-40.9,9.3l0,0l-3.1-0.8l-0.4-0.1l-0.1,0h0c-0.1,0-0.1,0-0.2,0c0,0,0,0-0.1,0
				c-0.1,0-0.1,0-0.1,0h0c0,0-0.1,0-0.1,0c-0.1,0-0.1,0-0.1,0c-0.8,0-1.5,0.4-1.9,1l0,0c0,0,0,0.1,0,0.1c-0.1,0.1-0.1,0.1-0.1,0.2
				c0,0.1-0.1,0.2-0.1,0.3v0c0,0.1,0,0.1,0,0.2v0.5l-24.2,5.5l13-12.5l1.3,1.3c1.9,1.9,4.8,2.1,6.9,0.4l6.8-5.5H259.2z"/>
			<radialGradient id="SVGID_12_" cx="209.9499" cy="336.3758" r="224.8157" gradientUnits="userSpaceOnUse">
				<stop  offset="0" style="stop-color:#F5DDEB"/>
				<stop  offset="0.2003" style="stop-color:#D9C0D6"/>
				<stop  offset="0.6318" style="stop-color:#93769F"/>
				<stop  offset="0.9946" style="stop-color:#54346E"/>
			</radialGradient>
			<polygon class="st13" points="187.3,263.4 215.2,279.5 231.5,331.5 			"/>
			<radialGradient id="SVGID_13_" cx="196.4704" cy="260.7984" r="56.8339" gradientUnits="userSpaceOnUse">
				<stop  offset="0" style="stop-color:#F5DDEB"/>
				<stop  offset="0.2003" style="stop-color:#D9C0D6"/>
				<stop  offset="0.6318" style="stop-color:#93769F"/>
				<stop  offset="0.9946" style="stop-color:#54346E"/>
			</radialGradient>
			<polygon class="st14" points="187.3,263.4 187.5,299.6 143.5,331.5 			"/>
		</g>
		<polygon class="st15" points="215.2,208.7 215.8,210.6 217.8,210.6 216.2,211.8 216.8,213.7 215.2,212.5 213.5,213.7 214.2,211.8 
			212.5,210.6 214.6,210.6 		"/>
		<polygon class="st15" points="129.8,293.1 130.5,295.1 132.5,295.1 130.9,296.3 131.5,298.2 129.8,297 128.2,298.2 128.8,296.3 
			127.2,295.1 129.2,295.1 		"/>
		<polygon class="st15" points="250.7,278.4 251.3,280.3 253.3,280.3 251.7,281.5 252.3,283.4 250.7,282.2 249,283.4 249.7,281.5 
			248,280.3 250,280.3 		"/>
		<polygon class="st15" points="153.5,211.2 154.1,213.1 156.2,213.1 154.5,214.3 155.2,216.2 153.5,215 151.9,216.2 152.5,214.3 
			150.9,213.1 152.9,213.1 		"/>
		<path class="st15" d="M235.3,295.5c-0.1,0.2-0.2,0.4-0.4,0.5c-1.1,1.1-2.8,1.1-3.9,0c-1.1-1.1-1.1-2.8,0-3.9
			c0.3-0.3,0.6-0.5,0.9-0.6c-0.8,1-0.8,2.6,0.2,3.5C233,295.9,234.3,296.1,235.3,295.5z"/>
		<path class="st15" d="M234,236.4c-0.1,0.2-0.2,0.4-0.4,0.5c-1.1,1.1-2.8,1.1-3.9,0c-1.1-1.1-1.1-2.8,0-3.9
			c0.3-0.3,0.6-0.5,0.9-0.6c-0.8,1-0.8,2.6,0.2,3.5C231.7,236.8,233,237,234,236.4z"/>
		
			<rect x="126.7" y="223.1" transform="matrix(0.7071 -0.7071 0.7071 0.7071 -124.514 156.9056)" class="st15" width="0.8" height="11.3"/>
		
			<rect x="113.5" y="263.7" transform="matrix(0.7071 -0.7071 0.7071 0.7071 -160.3008 160.7591)" class="st15" width="0.8" height="20.4"/>
		
			<rect x="231.8" y="212.1" transform="matrix(0.7071 -0.7071 0.7071 0.7071 -81.3749 228.6259)" class="st15" width="7" height="0.8"/>
	</g>
</g>
</svg>
